<?xml version="1.0" encoding="UTF-8" standalone="no"?>
<svg
   xmlns:dc="http://purl.org/dc/elements/1.1/"
   xmlns:cc="http://creativecommons.org/ns#"
   xmlns:rdf="http://www.w3.org/1999/02/22-rdf-syntax-ns#"
   xmlns:svg="http://www.w3.org/2000/svg"
   xmlns="http://www.w3.org/2000/svg"
   xmlns:sodipodi="http://sodipodi.sourceforge.net/DTD/sodipodi-0.dtd"
   xmlns:inkscape="http://www.inkscape.org/namespaces/inkscape"
   version="1.1"
   x="0px"
   y="0px"
   width="100px"
   height="100px"
   viewBox="0 0 100 100"
   enable-background="new 0 0 100 100"
   xml:space="preserve"
   id="svg2"
   inkscape:version="0.48.4 r9939"
   sodipodi:docname="m.svg"><metadata
   id="metadata45"><rdf:RDF><cc:Work
       rdf:about=""><dc:format>image/svg+xml</dc:format><dc:type
         rdf:resource="http://purl.org/dc/dcmitype/StillImage" /></cc:Work></rdf:RDF></metadata><defs
   id="defs43">
	
	
	
	
	
</defs><sodipodi:namedview
   pagecolor="#ffffff"
   bordercolor="#666666"
   borderopacity="1"
   objecttolerance="10"
   gridtolerance="10"
   guidetolerance="10"
   inkscape:pageopacity="0"
   inkscape:pageshadow="2"
   inkscape:window-width="1366"
   inkscape:window-height="705"
   id="namedview41"
   showgrid="false"
   inkscape:zoom="4.683125"
   inkscape:cx="50"
   inkscape:cy="50"
   inkscape:window-x="-8"
   inkscape:window-y="-8"
   inkscape:window-maximized="1"
   inkscape:current-layer="svg2" />
<g
   id="Captions">
</g>
<g
   id="Layer_3">
</g>
<g
   id="g7">
		<g
   id="g9">
			<rect
   id="rect11"
   height="39.432999"
   width="2"
   transform="matrix(0.9764,0.2158,-0.2158,0.9764,11.9051,-5.4169)"
   y="32.094002"
   x="29.759001" />
		</g>
		<g
   id="g13">
			<rect
   id="rect15"
   height="47.02"
   width="2"
   y="47.542"
   x="49" />
		</g>
		<g
   id="g17">
			<rect
   id="rect19"
   height="2"
   width="39.432999"
   transform="matrix(0.216,0.9764,-0.9764,0.216,104.8702,-26.9876)"
   y="50.811001"
   x="49.523998" />
		</g>
		<g
   id="g21">
			<path
   inkscape:connector-curvature="0"
   id="path23"
   d="M 0.528,98.447 19.173,46.991 35.018,31.145 50,46.127 64.981,31.146 80.827,46.992 80.903,47.201 99.471,98.448 73.5,72.476 50,95.976 26.5,72.476 0.528,98.447 z M 26.5,69.647 50,93.147 73.5,69.647 94.528,90.675 79.098,48.091 64.981,33.974 50,48.956 35.019,33.974 20.902,48.091 5.472,90.676 26.5,69.647 z" />
		</g>
	</g><g
   id="g25">
		
	</g><g
   id="g29">
		<path
   id="polyline31"
   style="fill:#ff6600"
   d="m 42.5,22.039 7.5,7.5 7.5,-7.5 M 50,5.439 c -5.523,0 -10,4.477 -10,10 0,5.523 4.477,10 10,10 5.523,0 10,-4.477 10,-10 0,-5.523 -4.477,-10 -10,-10 z m 0,15 c -2.761,0 -5,-2.239 -5,-5 0,-2.761 2.239,-5 5,-5 2.761,0 5,2.239 5,5 0,2.761 -2.239,5 -5,5 z" />
	</g><g
   id="g33">
		<polygon
   id="polygon35"
   points="35.019,32.56 50,47.542 50,94.561 26.5,71.061 " />
	</g><g
   id="g37">
		<polygon
   id="polygon39"
   points="64.981,32.56 79.963,47.542 97,94.561 73.5,71.061 " />
	</g>
</svg>